:SAMPLES-PER-SECOND 30
:FULLY-SPECIFIED
:DEGREES
543
root  -10.9324 34.489 0.330065 -171.756 3.97038 -179.325
RightUpLeg  -6.76532 -6.31732 -1.42186
RightLeg  7.1145 -1.3325 -0.078682
RightFoot  3.60662 0.01446 0.0340612
RightToes  -26.8787 -0.116932 -0.224342
Spine  -2.72565 -0.631411 0.238213
Spine1  -5.50593 -1.32342 1.05765
HEad  -63.1673 6.23723 6.74175
LeftShoulder1  -1.94126e-019 -3.10601e-018 -2.51263e-017
LeftArm  -13.6205 24.3897 -81.6472
LeftForeArm  31.8747 -18.5798 -3.15687
LeftHand  -0.320248 -0.117072 6.65349
RightShoulder  -4.96962e-017 0 -2.36833e-017
RightArm  -43.2736 -27.6947 76.5642
RightForeArm  51.1856 12.796 1.4576
RightHand  -0.17886 -4.09963 -15.0448
LeftUpLeg  -4.9625 5.49837 1.68395
LeftLeg  6.16606 13.9451 0.59819
LeftFoot  3.01798 -0.0201555 0.844408
LeftToes  -23.4176 2.14545e-006 -7.7278e-009
544
root  -10.969 34.4971 0.332037 -171.727 3.68445 -179.34
RightUpLeg  -6.63371 -6.53076 -1.47224
RightLeg  6.85069 -1.38388 -0.0753706
RightFoot  3.76808 0.0147221 0.0303162
RightToes  -26.8651 -0.116932 -0.224342
Spine  -2.71039 -0.580366 0.210449
Spine1  -5.47833 -1.20489 1.00323
HEad  -63.4665 5.76785 6.62666
LeftShoulder1  -1.94126e-019 -3.10601e-018 -2.51263e-017
LeftArm  -13.3097 24.6227 -81.8321
LeftForeArm  32.2028 -17.941 -3.05451
LeftHand  -0.315781 -0.103834 6.72576
RightShoulder  -4.96962e-017 0 -2.36833e-017
RightArm  -42.186 -27.3799 76.6988
RightForeArm  51.4094 12.9721 1.43799
RightHand  -0.206876 -3.86953 -14.9525
LeftUpLeg  -4.98844 5.48747 1.63103
LeftLeg  6.04641 13.7019 0.559573
LeftFoot  3.05934 -0.0201605 0.844486
LeftToes  -23.3669 2.14545e-006 -7.7278e-009
545
root  -11.0006 34.5064 0.335393 -171.68 3.37889 -179.362
RightUpLeg  -6.45383 -6.85935 -1.51853
RightLeg  6.45172 -1.36442 -0.0647841
RightFoot  4.00177 0.0147547 0.0298508
RightToes  -27.0812 -0.116932 -0.224342
Spine  -2.71629 -0.53152 0.178889
Spine1  -5.49328 -1.08705 0.944156
HEad  -63.5801 5.41937 6.6109
LeftShoulder1  -1.94126e-019 -3.10601e-018 -2.51263e-017
LeftArm  -12.7834 24.9943 -81.8809
LeftForeArm  32.3264 -17.5271 -2.97373
LeftHand  -0.313522 -0.111872 6.69905
RightShoulder  -4.96962e-017 0 -2.36833e-017
RightArm  -40.1068 -27.1104 76.7999
RightForeArm  51.2482 13.3596 1.40062
RightHand  -0.214604 -3.79942 -14.8689
LeftUpLeg  -5.00823 5.32056 1.57581
LeftLeg  5.86977 13.5781 0.513094
LeftFoot  3.14454 -0.0213321 0.862696
LeftToes  -23.4857 2.14545e-006 -7.7278e-009
546
root  -11.0395 34.5129 0.332245 -171.651 3.01242 -179.466
RightUpLeg  -6.04133 -8.1008 -1.65412
RightLeg  5.66445 -0.540734 -0.0176216
RightFoot  4.2684 0.0109086 0.0848096
RightToes  -26.9908 -0.116932 -0.224342
Spine  -2.73048 -0.493271 0.114053
Spine1  -5.52391 -0.990944 0.8221
HEad  -63.5041 5.1556 6.5707
LeftShoulder1  -1.94126e-019 -3.10601e-018 -2.51263e-017
LeftArm  -12.2036 25.4058 -81.8294
LeftForeArm  32.3068 -17.2452 -2.91014
LeftHand  -0.310959 -0.0343714 6.71437
RightShoulder  -4.96962e-017 0 -2.36833e-017
RightArm  -37.6789 -26.8544 76.9223
RightForeArm  51.2722 13.8643 1.34556
RightHand  -0.231274 -3.63666 -14.6155
LeftUpLeg  -4.98471 5.21433 1.43404
LeftLeg  5.63175 13.3359 0.44916
LeftFoot  3.24597 -0.0223183 0.878024
LeftToes  -23.4797 2.14545e-006 -7.7278e-009
547
root  -11.0615 34.525 0.347493 -171.604 2.82811 -179.433
RightUpLeg  -6.1269 -7.55177 -1.64523
RightLeg  5.73507 -1.21386 -0.0423503
RightFoot  4.3201 0.0139505 0.0413427
RightToes  -27.0916 -0.116932 -0.224342
Spine  -2.75269 -0.373 0.094445
Spine1  -5.57148 -0.729788 0.78467
HEad  -63.2328 4.87882 6.56354
LeftShoulder1  -1.94126e-019 -3.10601e-018 -2.51263e-017
LeftArm  -11.772 25.7042 -81.7962
LeftForeArm  32.5117 -16.7917 -2.82153
LeftHand  -0.312983 -0.159097 6.61763
RightShoulder  -4.96962e-017 0 -2.36833e-017
RightArm  -35.3007 -26.6553 77.0127
RightForeArm  51.4724 14.5469 1.26715
RightHand  -0.280681 -3.14523 -14.0365
LeftUpLeg  -4.9875 5.11325 1.44699
LeftLeg  5.43713 13.2339 0.401211
LeftFoot  3.32614 -0.023416 0.895086
LeftToes  -23.5326 2.14545e-006 -7.7278e-009
548
root  -11.0824 34.5357 0.356646 -171.563 2.64444 -179.445
RightUpLeg  -6.01843 -7.71346 -1.67276
RightLeg  5.44977 -1.23002 -0.0368187
RightFoot  4.48865 0.0140098 0.0404951
RightToes  -27.1891 -0.116932 -0.224342
Spine  -2.77222 -0.25182 0.0672348
Spine1  -5.61219 -0.469659 0.729636
HEad  -62.9613 4.60971 6.58414
LeftShoulder1  -1.94126e-019 -3.10601e-018 -2.51263e-017
LeftArm  -11.3348 26.0111 -81.7287
LeftForeArm  32.669 -16.4663 -2.75232
LeftHand  -0.30516 -0.117839 6.49743
RightShoulder  -4.96962e-017 0 -2.36833e-017
RightArm  -33.9442 -26.4035 77.1976
RightForeArm  51.6013 15.1511 1.20584
RightHand  -0.330583 -2.60565 -13.4636
LeftUpLeg  -4.96887 5.18443 1.41837
LeftLeg  5.2157 12.9854 0.344028
LeftFoot  3.44609 -0.0245105 0.912098
LeftToes  -23.6832 2.14545e-006 -7.7278e-009
549
root  -11.1009 34.5466 0.368707 -171.568 2.492 -179.455
RightUpLeg  -5.91109 -7.84392 -1.70115
RightLeg  5.24193 -1.24642 -0.0328161
RightFoot  4.60727 0.014013 0.0404487
RightToes  -27.2259 -0.116932 -0.224342
Spine  -2.76055 -0.141839 0.04538
Spine1  -5.5902 -0.232602 0.691226
HEad  -62.8615 4.44777 6.65172
LeftShoulder1  -1.94126e-019 -3.10601e-018 -2.51263e-017
LeftArm  -11.359 26.2009 -81.7263
LeftForeArm  32.855 -15.9893 -2.66711
LeftHand  -0.307935 -0.173822 6.49553
RightShoulder  -4.96962e-017 0 -2.36833e-017
RightArm  -33.3035 -25.9934 77.4509
RightForeArm  51.3125 15.5879 1.18202
RightHand  -0.340536 -2.44918 -13.1582
LeftUpLeg  -4.89046 5.02965 1.38683
LeftLeg  4.97799 12.9923 0.29077
LeftFoot  3.55791 -0.0264794 0.9427
LeftToes  -23.6779 2.14545e-006 -7.7278e-009
